<svg xmlns="http://www.w3.org/2000/svg" xmlns:xlink="http://www.w3.org/1999/xlink" width="500" zoomAndPan="magnify" viewBox="0 0 375 225" height="300" preserveAspectRatio="xMidYMid meet" version="1.2"><defs/><g id="4d263b4f0a"><g style="fill:#00b3e6;fill-opacity:1;"><g transform="translate(36.983223, 172.607573)"><path style="stroke:none" d="M 14.484375 -92.046875 C 14.304688 -93.285156 14.09375 -94.585938 13.84375 -95.953125 C 13.84375 -95.398438 13.929688 -95.832031 14.109375 -97.25 C 14.296875 -98.675781 14.546875 -101.125 14.859375 -104.59375 C 15.359375 -105.269531 15.710938 -105.867188 15.921875 -106.390625 C 16.140625 -106.921875 16.34375 -107.40625 16.53125 -107.84375 C 15.976562 -108.519531 15.5625 -109.09375 15.28125 -109.5625 C 15 -110.03125 14.859375 -110.414062 14.859375 -110.71875 C 15.359375 -114.5 15.820312 -118.09375 16.25 -121.5 C 16.3125 -122.425781 16.851562 -123.476562 17.875 -124.65625 C 18.894531 -125.832031 20.304688 -127.101562 22.109375 -128.46875 C 23.535156 -129.644531 24.925781 -130.632812 26.28125 -131.4375 C 27.644531 -132.238281 28.945312 -132.890625 30.1875 -133.390625 C 31.863281 -133.941406 32.851562 -134.40625 33.15625 -134.78125 C 33.46875 -135.15625 33.8125 -135.34375 34.1875 -135.34375 C 35.175781 -135.34375 35.929688 -134.84375 36.453125 -133.84375 C 36.984375 -132.851562 37.25 -131.367188 37.25 -129.390625 C 37.25 -128.335938 36.984375 -126.878906 36.453125 -125.015625 C 35.929688 -123.160156 35.671875 -121.800781 35.671875 -120.9375 C 35.671875 -120.5625 35.71875 -119.132812 35.8125 -116.65625 C 35.90625 -114.1875 36.039062 -110.628906 36.21875 -105.984375 C 36.28125 -102.640625 36.757812 -99.078125 37.65625 -95.296875 C 38.5625 -91.523438 39.726562 -87.59375 41.15625 -83.5 C 43.070312 -78.175781 45.144531 -74.195312 47.375 -71.5625 C 49.601562 -68.9375 52.050781 -67.625 54.71875 -67.625 C 56.820312 -67.625 59.601562 -68.984375 63.0625 -71.703125 C 66.53125 -74.429688 70.617188 -78.519531 75.328125 -83.96875 C 78.921875 -88.175781 82.125 -92.109375 84.9375 -95.765625 C 87.757812 -99.421875 90.035156 -102.765625 91.765625 -105.796875 C 93.378906 -108.523438 95.269531 -110.972656 97.4375 -113.140625 C 99.601562 -115.304688 102.082031 -117.285156 104.875 -119.078125 C 105.738281 -119.578125 106.445312 -119.976562 107 -120.28125 C 107.5625 -120.59375 108 -120.75 108.3125 -120.75 C 109.425781 -120.75 110.273438 -119.910156 110.859375 -118.234375 C 111.453125 -116.566406 111.75 -114.09375 111.75 -110.8125 C 111.375 -107.78125 111.0625 -104.78125 110.8125 -101.8125 C 110.257812 -97.164062 109.441406 -92.332031 108.359375 -87.3125 C 107.273438 -82.300781 105.863281 -77.097656 104.125 -71.703125 C 103.257812 -68.984375 102.515625 -66.597656 101.890625 -64.546875 C 101.273438 -62.503906 100.84375 -60.773438 100.59375 -59.359375 C 100.46875 -58.546875 100.296875 -57.535156 100.078125 -56.328125 C 99.867188 -55.128906 99.640625 -53.722656 99.390625 -52.109375 C 98.773438 -50.554688 98.09375 -49.007812 97.34375 -47.46875 C 96.726562 -46.226562 96.21875 -44.738281 95.8125 -43 C 95.40625 -41.269531 95.050781 -39.257812 94.75 -36.96875 C 94.75 -36.53125 94.71875 -35.972656 94.65625 -35.296875 C 94.59375 -34.617188 94.53125 -33.90625 94.46875 -33.15625 C 93.039062 -26.84375 91.582031 -20.710938 90.09375 -14.765625 C 89.976562 -14.210938 89.703125 -13.5 89.265625 -12.625 C 88.460938 -12.382812 87.550781 -11.859375 86.53125 -11.046875 C 85.507812 -10.242188 84.441406 -9.128906 83.328125 -7.703125 C 82.210938 -6.472656 81.28125 -5.5625 80.53125 -4.96875 C 79.789062 -4.382812 79.234375 -4.09375 78.859375 -4.09375 C 78.367188 -4.09375 77.96875 -4.242188 77.65625 -4.546875 C 77.34375 -4.859375 77.1875 -5.382812 77.1875 -6.125 C 77.25 -6.625 77.34375 -7.03125 77.46875 -7.34375 C 78.332031 -9.445312 79.085938 -12.476562 79.734375 -16.4375 C 80.390625 -20.40625 81 -25.300781 81.5625 -31.125 C 81.625 -32.351562 82.117188 -35.691406 83.046875 -41.140625 C 83.972656 -46.597656 85.332031 -54.15625 87.125 -63.8125 C 87.375 -65.363281 87.695312 -67.269531 88.09375 -69.53125 C 88.5 -71.789062 89.015625 -74.375 89.640625 -77.28125 C 90.066406 -78.769531 90.421875 -80.054688 90.703125 -81.140625 C 90.984375 -82.222656 91.125 -83.007812 91.125 -83.5 C 91.125 -84.125 91.015625 -84.570312 90.796875 -84.84375 C 90.578125 -85.125 90.253906 -85.265625 89.828125 -85.265625 C 89.453125 -85.265625 88.769531 -84.785156 87.78125 -83.828125 C 86.789062 -82.867188 85.550781 -81.429688 84.0625 -79.515625 C 83.195312 -78.460938 82.3125 -77.347656 81.40625 -76.171875 C 80.507812 -74.992188 79.566406 -73.847656 78.578125 -72.734375 C 76.910156 -70.992188 75.363281 -69.351562 73.9375 -67.8125 L 67.0625 -60.9375 C 66.445312 -60.5625 65.6875 -60.09375 64.78125 -59.53125 C 63.882812 -58.976562 62.816406 -58.332031 61.578125 -57.59375 C 60.398438 -55.726562 58.523438 -54.128906 55.953125 -52.796875 C 53.390625 -51.472656 51.023438 -50.8125 48.859375 -50.8125 C 46.253906 -50.8125 43.757812 -51.628906 41.375 -53.265625 C 39 -54.910156 36.695312 -57.4375 34.46875 -60.84375 C 33.46875 -62.507812 32.488281 -64.175781 31.53125 -65.84375 C 30.570312 -67.519531 29.535156 -69.195312 28.421875 -70.875 L 27.953125 -70.78125 C 27.648438 -70.40625 27.078125 -67.894531 26.234375 -63.25 C 25.398438 -58.613281 24.332031 -51.804688 23.03125 -42.828125 C 21.613281 -33.597656 20.53125 -26.347656 19.78125 -21.078125 C 19.039062 -15.816406 18.671875 -12.414062 18.671875 -10.875 C 18.546875 -8.757812 18.15625 -7.128906 17.5 -5.984375 C 16.851562 -4.835938 15.847656 -4.175781 14.484375 -4 C 13.804688 -3.9375 12.847656 -3.765625 11.609375 -3.484375 C 10.367188 -3.203125 8.882812 -2.847656 7.15625 -2.421875 C 6.84375 -2.484375 6.5625 -2.585938 6.3125 -2.734375 C 6.0625 -2.890625 5.9375 -3.125 5.9375 -3.4375 L 6.5 -6.875 L 5.578125 -10.40625 C 5.941406 -12.320312 6.3125 -14.179688 6.6875 -15.984375 C 6.9375 -19.691406 7.15625 -23.1875 7.34375 -26.46875 C 7.40625 -27.15625 7.632812 -28.300781 8.03125 -29.90625 C 8.4375 -31.519531 8.640625 -32.726562 8.640625 -33.53125 C 8.640625 -33.96875 8.546875 -34.601562 8.359375 -35.4375 C 8.171875 -36.269531 8.078125 -36.90625 8.078125 -37.34375 C 8.078125 -40.75 8.617188 -45.796875 9.703125 -52.484375 C 10.785156 -59.171875 11.328125 -64.25 11.328125 -67.71875 C 11.140625 -69.144531 10.925781 -70.566406 10.6875 -71.984375 C 10.988281 -74.210938 11.476562 -77 12.15625 -80.34375 C 12.84375 -83.6875 13.617188 -87.585938 14.484375 -92.046875 Z M 14.484375 -92.046875 "/></g></g><g style="fill:#ffffff;fill-opacity:1;"><g transform="translate(143.671664, 162.928062)"><path style="stroke:none" d="M 33.9375 -17.359375 C 33.9375 -16.335938 33.878906 -15.257812 33.765625 -14.125 L 8 -14.125 C 8.195312 -10.945312 9.285156 -8.460938 11.265625 -6.671875 C 13.242188 -4.890625 15.644531 -4 18.46875 -4 C 20.78125 -4 22.710938 -4.535156 24.265625 -5.609375 C 25.816406 -6.691406 26.90625 -8.132812 27.53125 -9.9375 L 33.296875 -9.9375 C 32.429688 -6.84375 30.703125 -4.320312 28.109375 -2.375 C 25.523438 -0.4375 22.3125 0.53125 18.46875 0.53125 C 15.414062 0.53125 12.679688 -0.15625 10.265625 -1.53125 C 7.847656 -2.90625 5.953125 -4.851562 4.578125 -7.375 C 3.210938 -9.90625 2.53125 -12.835938 2.53125 -16.171875 C 2.53125 -19.503906 3.195312 -22.425781 4.53125 -24.9375 C 5.863281 -27.445312 7.734375 -29.378906 10.140625 -30.734375 C 12.554688 -32.085938 15.332031 -32.765625 18.46875 -32.765625 C 21.53125 -32.765625 24.238281 -32.097656 26.59375 -30.765625 C 28.945312 -29.429688 30.757812 -27.597656 32.03125 -25.265625 C 33.300781 -22.929688 33.9375 -20.296875 33.9375 -17.359375 Z M 28.40625 -18.46875 C 28.40625 -20.507812 27.953125 -22.265625 27.046875 -23.734375 C 26.148438 -25.203125 24.925781 -26.316406 23.375 -27.078125 C 21.832031 -27.847656 20.117188 -28.234375 18.234375 -28.234375 C 15.523438 -28.234375 13.21875 -27.367188 11.3125 -25.640625 C 9.414062 -23.921875 8.332031 -21.53125 8.0625 -18.46875 Z M 28.40625 -18.46875 "/></g></g><g style="fill:#ffffff;fill-opacity:1;"><g transform="translate(180.139002, 162.928062)"><path style="stroke:none" d="M 2.53125 -16.234375 C 2.53125 -19.523438 3.195312 -22.414062 4.53125 -24.90625 C 5.863281 -27.40625 7.695312 -29.335938 10.03125 -30.703125 C 12.363281 -32.078125 14.984375 -32.765625 17.890625 -32.765625 C 20.398438 -32.765625 22.734375 -32.1875 24.890625 -31.03125 C 27.046875 -29.875 28.691406 -28.351562 29.828125 -26.46875 L 29.828125 -43.53125 L 35.234375 -43.53125 L 35.234375 0 L 29.828125 0 L 29.828125 -6.0625 C 28.765625 -4.132812 27.191406 -2.550781 25.109375 -1.3125 C 23.035156 -0.0820312 20.609375 0.53125 17.828125 0.53125 C 14.960938 0.53125 12.363281 -0.171875 10.03125 -1.578125 C 7.695312 -2.992188 5.863281 -4.976562 4.53125 -7.53125 C 3.195312 -10.082031 2.53125 -12.984375 2.53125 -16.234375 Z M 29.828125 -16.171875 C 29.828125 -18.609375 29.335938 -20.726562 28.359375 -22.53125 C 27.378906 -24.332031 26.054688 -25.710938 24.390625 -26.671875 C 22.722656 -27.640625 20.890625 -28.125 18.890625 -28.125 C 16.890625 -28.125 15.0625 -27.648438 13.40625 -26.703125 C 11.757812 -25.765625 10.445312 -24.394531 9.46875 -22.59375 C 8.488281 -20.789062 8 -18.671875 8 -16.234375 C 8 -13.765625 8.488281 -11.617188 9.46875 -9.796875 C 10.445312 -7.972656 11.757812 -6.578125 13.40625 -5.609375 C 15.0625 -4.648438 16.890625 -4.171875 18.890625 -4.171875 C 20.890625 -4.171875 22.722656 -4.648438 24.390625 -5.609375 C 26.054688 -6.578125 27.378906 -7.972656 28.359375 -9.796875 C 29.335938 -11.617188 29.828125 -13.742188 29.828125 -16.171875 Z M 29.828125 -16.171875 "/></g></g><g style="fill:#ffffff;fill-opacity:1;"><g transform="translate(219.900163, 162.928062)"><path style="stroke:none" d="M 7.296875 -37.46875 C 6.273438 -37.46875 5.410156 -37.820312 4.703125 -38.53125 C 3.992188 -39.238281 3.640625 -40.101562 3.640625 -41.125 C 3.640625 -42.144531 3.992188 -43.003906 4.703125 -43.703125 C 5.410156 -44.410156 6.273438 -44.765625 7.296875 -44.765625 C 8.273438 -44.765625 9.109375 -44.410156 9.796875 -43.703125 C 10.484375 -43.003906 10.828125 -42.144531 10.828125 -41.125 C 10.828125 -40.101562 10.484375 -39.238281 9.796875 -38.53125 C 9.109375 -37.820312 8.273438 -37.46875 7.296875 -37.46875 Z M 9.890625 -32.234375 L 9.890625 0 L 4.53125 0 L 4.53125 -32.234375 Z M 9.890625 -32.234375 "/></g></g><g style="fill:#ffffff;fill-opacity:1;"><g transform="translate(234.369461, 162.928062)"><path style="stroke:none" d="M 9.890625 -43.53125 L 9.890625 0 L 4.53125 0 L 4.53125 -43.53125 Z M 9.890625 -43.53125 "/></g></g><g style="fill:#ffffff;fill-opacity:1;"><g transform="translate(248.83876, 162.928062)"><path style="stroke:none" d="M 7.296875 -37.46875 C 6.273438 -37.46875 5.410156 -37.820312 4.703125 -38.53125 C 3.992188 -39.238281 3.640625 -40.101562 3.640625 -41.125 C 3.640625 -42.144531 3.992188 -43.003906 4.703125 -43.703125 C 5.410156 -44.410156 6.273438 -44.765625 7.296875 -44.765625 C 8.273438 -44.765625 9.109375 -44.410156 9.796875 -43.703125 C 10.484375 -43.003906 10.828125 -42.144531 10.828125 -41.125 C 10.828125 -40.101562 10.484375 -39.238281 9.796875 -38.53125 C 9.109375 -37.820312 8.273438 -37.46875 7.296875 -37.46875 Z M 9.890625 -32.234375 L 9.890625 0 L 4.53125 0 L 4.53125 -32.234375 Z M 9.890625 -32.234375 "/></g></g><g style="fill:#ffffff;fill-opacity:1;"><g transform="translate(263.308058, 162.928062)"><path style="stroke:none" d="M 20.234375 -32.828125 C 24.160156 -32.828125 27.335938 -31.640625 29.765625 -29.265625 C 32.203125 -26.890625 33.421875 -23.46875 33.421875 -19 L 33.421875 0 L 28.125 0 L 28.125 -18.234375 C 28.125 -21.453125 27.316406 -23.910156 25.703125 -25.609375 C 24.097656 -27.316406 21.90625 -28.171875 19.125 -28.171875 C 16.300781 -28.171875 14.054688 -27.289062 12.390625 -25.53125 C 10.722656 -23.769531 9.890625 -21.203125 9.890625 -17.828125 L 9.890625 0 L 4.53125 0 L 4.53125 -32.234375 L 9.890625 -32.234375 L 9.890625 -27.65625 C 10.941406 -29.300781 12.378906 -30.570312 14.203125 -31.46875 C 16.023438 -32.375 18.035156 -32.828125 20.234375 -32.828125 Z M 20.234375 -32.828125 "/></g></g><g style="fill:#ffffff;fill-opacity:1;"><g transform="translate(300.951765, 162.928062)"><path style="stroke:none" d="M 22.53125 0 L 9.890625 -14.234375 L 9.890625 0 L 4.53125 0 L 4.53125 -43.53125 L 9.890625 -43.53125 L 9.890625 -17.9375 L 22.296875 -32.234375 L 29.765625 -32.234375 L 14.59375 -16.171875 L 29.828125 0 Z M 22.53125 0 "/></g></g></g></svg>